<?xml version="1.0" encoding="UTF-8"?>
<svg fill="none" viewBox="0 0 95 26" xmlns="http://www.w3.org/2000/svg">
<mask id="a" x="19" y="5" width="76" height="16" fill="black" maskUnits="userSpaceOnUse">
<rect x="19" y="5" width="76" height="16" fill="#fff"/>
<path d="m25.14 20.24c-0.9867 0-1.8533-0.18-2.6-0.54-0.7333-0.36-1.3133-0.8733-1.74-1.54-0.4133-0.6667-0.6267-1.46-0.64-2.38h2.24c0.0133 0.7067 0.2533 1.3133 0.72 1.82 0.48 0.4933 1.1467 0.74 2 0.74 0.7867 0 1.4-0.18 1.84-0.54 0.44-0.3733 0.66-0.8533 0.66-1.44 0-0.4933-0.1333-0.9-0.4-1.22-0.2533-0.3333-0.6533-0.6267-1.2-0.88-0.5467-0.2667-1.2533-0.54-2.12-0.82-1.16-0.3733-2.0133-0.8867-2.56-1.54-0.5467-0.6667-0.82-1.48-0.82-2.44 0-1.1067 0.4-2 1.2-2.68s1.9-1.02 3.3-1.02c1.36 0 2.4533 0.35333 3.28 1.06 0.8267 0.69333 1.2533 1.66 1.28 2.9h-2.26c0-0.33333-0.0933-0.65333-0.28-0.96-0.1867-0.32-0.4533-0.58-0.8-0.78-0.3467-0.21333-0.7733-0.32-1.28-0.32-0.6267-0.01333-1.1533 0.14-1.58 0.46-0.4267 0.30667-0.64 0.72667-0.64 1.26 0 0.6533 0.26 1.1667 0.78 1.54 0.52 0.36 1.3667 0.7333 2.54 1.12 0.7333 0.24 1.38 0.5333 1.94 0.88 0.5733 0.3333 1.02 0.7667 1.34 1.3 0.3333 0.52 0.5 1.1867 0.5 2 0 0.7467-0.1867 1.4267-0.56 2.04-0.3733 0.6-0.9133 1.08-1.62 1.44-0.6933 0.36-1.5333 0.54-2.52 0.54zm11.272-0.24v-14h4.74c1.0667 0 1.9467 0.18667 2.64 0.56 0.6933 0.36 1.2067 0.86 1.54 1.5s0.5 1.3733 0.5 2.2c0 0.8267-0.1667 1.56-0.5 2.2s-0.8467 1.1467-1.54 1.52c-0.6933 0.36-1.5733 0.54-2.64 0.54h-2.62v5.48h-2.12zm2.12-7.38h2.52c0.9067 0 1.5667-0.2133 1.98-0.64 0.4267-0.4267 0.64-1 0.64-1.72 0-0.70667-0.2133-1.2733-0.64-1.7-0.4133-0.44-1.0733-0.66-1.98-0.66h-2.52v4.72zm18.452 7.62c-1.1334 0-2.1134-0.2933-2.94-0.88-0.8267-0.5867-1.46-1.42-1.9-2.5s-0.66-2.3667-0.66-3.86 0.22-2.78 0.66-3.86 1.0733-1.9133 1.9-2.5c0.8266-0.58667 1.8066-0.88 2.94-0.88 1.1466 0 2.1266 0.29333 2.94 0.88 0.8266 0.58667 1.46 1.42 1.9 2.5s0.66 2.3667 0.66 3.86-0.22 2.78-0.66 3.86-1.0734 1.9133-1.9 2.5c-0.8134 0.5867-1.7934 0.88-2.94 0.88zm0-2c1 0 1.8066-0.4467 2.42-1.34 0.6133-0.9067 0.92-2.2067 0.92-3.9s-0.3067-2.9867-0.92-3.88c-0.6134-0.90667-1.42-1.36-2.42-1.36-1.0134 0-1.8267 0.45333-2.44 1.36-0.6 0.8933-0.9 2.1867-0.9 3.88s0.3 2.9933 0.9 3.9c0.6133 0.8933 1.4266 1.34 2.44 1.34zm14.932 1.76v-12.1h-3.76v-1.9h9.64v1.9h-3.76v12.1h-2.12zm17.192 0.24c-0.9867 0-1.8534-0.18-2.6-0.54-0.7334-0.36-1.3134-0.8733-1.74-1.54-0.4134-0.6667-0.6267-1.46-0.64-2.38h2.24c0.0133 0.7067 0.2533 1.3133 0.72 1.82 0.48 0.4933 1.1466 0.74 2 0.74 0.7866 0 1.4-0.18 1.84-0.54 0.44-0.3733 0.66-0.8533 0.66-1.44 0-0.4933-0.1334-0.9-0.4-1.22-0.2534-0.3333-0.6534-0.6267-1.2-0.88-0.5467-0.2667-1.2534-0.54-2.12-0.82-1.16-0.3733-2.0134-0.8867-2.56-1.54-0.5467-0.6667-0.82-1.48-0.82-2.44 0-1.1067 0.4-2 1.2-2.68s1.9-1.02 3.3-1.02c1.36 0 2.4533 0.35333 3.28 1.06 0.8266 0.69333 1.2533 1.66 1.28 2.9h-2.26c0-0.33333-0.0934-0.65333-0.28-0.96-0.1867-0.32-0.4534-0.58-0.8-0.78-0.3467-0.21333-0.7734-0.32-1.28-0.32-0.6267-0.01333-1.1534 0.14-1.58 0.46-0.4267 0.30667-0.64 0.72667-0.64 1.26 0 0.6533 0.26 1.1667 0.78 1.54 0.52 0.36 1.3666 0.7333 2.54 1.12 0.7333 0.24 1.38 0.5333 1.94 0.88 0.5733 0.3333 1.02 0.7667 1.34 1.3 0.3333 0.52 0.5 1.1867 0.5 2 0 0.7467-0.1867 1.4267-0.5601 2.04-0.3733 0.6-0.9133 1.08-1.6199 1.44-0.6934 0.36-1.5334 0.54-2.52 0.54z"/>
</mask>
<path d="m25.14 20.24c-0.9867 0-1.8533-0.18-2.6-0.54-0.7333-0.36-1.3133-0.8733-1.74-1.54-0.4133-0.6667-0.6267-1.46-0.64-2.38h2.24c0.0133 0.7067 0.2533 1.3133 0.72 1.82 0.48 0.4933 1.1467 0.74 2 0.74 0.7867 0 1.4-0.18 1.84-0.54 0.44-0.3733 0.66-0.8533 0.66-1.44 0-0.4933-0.1333-0.9-0.4-1.22-0.2533-0.3333-0.6533-0.6267-1.2-0.88-0.5467-0.2667-1.2533-0.54-2.12-0.82-1.16-0.3733-2.0133-0.8867-2.56-1.54-0.5467-0.6667-0.82-1.48-0.82-2.44 0-1.1067 0.4-2 1.2-2.68s1.9-1.02 3.3-1.02c1.36 0 2.4533 0.35333 3.28 1.06 0.8267 0.69333 1.2533 1.66 1.28 2.9h-2.26c0-0.33333-0.0933-0.65333-0.28-0.96-0.1867-0.32-0.4533-0.58-0.8-0.78-0.3467-0.21333-0.7733-0.32-1.28-0.32-0.6267-0.01333-1.1533 0.14-1.58 0.46-0.4267 0.30667-0.64 0.72667-0.64 1.26 0 0.6533 0.26 1.1667 0.78 1.54 0.52 0.36 1.3667 0.7333 2.54 1.12 0.7333 0.24 1.38 0.5333 1.94 0.88 0.5733 0.3333 1.02 0.7667 1.34 1.3 0.3333 0.52 0.5 1.1867 0.5 2 0 0.7467-0.1867 1.4267-0.56 2.04-0.3733 0.6-0.9133 1.08-1.62 1.44-0.6933 0.36-1.5333 0.54-2.52 0.54zm11.272-0.24v-14h4.74c1.0667 0 1.9467 0.18667 2.64 0.56 0.6933 0.36 1.2067 0.86 1.54 1.5s0.5 1.3733 0.5 2.2c0 0.8267-0.1667 1.56-0.5 2.2s-0.8467 1.1467-1.54 1.52c-0.6933 0.36-1.5733 0.54-2.64 0.54h-2.62v5.48h-2.12zm2.12-7.38h2.52c0.9067 0 1.5667-0.2133 1.98-0.64 0.4267-0.4267 0.64-1 0.64-1.72 0-0.70667-0.2133-1.2733-0.64-1.7-0.4133-0.44-1.0733-0.66-1.98-0.66h-2.52v4.72zm18.452 7.62c-1.1334 0-2.1134-0.2933-2.94-0.88-0.8267-0.5867-1.46-1.42-1.9-2.5s-0.66-2.3667-0.66-3.86 0.22-2.78 0.66-3.86 1.0733-1.9133 1.9-2.5c0.8266-0.58667 1.8066-0.88 2.94-0.88 1.1466 0 2.1266 0.29333 2.94 0.88 0.8266 0.58667 1.46 1.42 1.9 2.5s0.66 2.3667 0.66 3.86-0.22 2.78-0.66 3.86-1.0734 1.9133-1.9 2.5c-0.8134 0.5867-1.7934 0.88-2.94 0.88zm0-2c1 0 1.8066-0.4467 2.42-1.34 0.6133-0.9067 0.92-2.2067 0.92-3.9s-0.3067-2.9867-0.92-3.88c-0.6134-0.90667-1.42-1.36-2.42-1.36-1.0134 0-1.8267 0.45333-2.44 1.36-0.6 0.8933-0.9 2.1867-0.9 3.88s0.3 2.9933 0.9 3.9c0.6133 0.8933 1.4266 1.34 2.44 1.34zm14.932 1.76v-12.1h-3.76v-1.9h9.64v1.9h-3.76v12.1h-2.12zm17.192 0.24c-0.9867 0-1.8534-0.18-2.6-0.54-0.7334-0.36-1.3134-0.8733-1.74-1.54-0.4134-0.6667-0.6267-1.46-0.64-2.38h2.24c0.0133 0.7067 0.2533 1.3133 0.72 1.82 0.48 0.4933 1.1466 0.74 2 0.74 0.7866 0 1.4-0.18 1.84-0.54 0.44-0.3733 0.66-0.8533 0.66-1.44 0-0.4933-0.1334-0.9-0.4-1.22-0.2534-0.3333-0.6534-0.6267-1.2-0.88-0.5467-0.2667-1.2534-0.54-2.12-0.82-1.16-0.3733-2.0134-0.8867-2.56-1.54-0.5467-0.6667-0.82-1.48-0.82-2.44 0-1.1067 0.4-2 1.2-2.68s1.9-1.02 3.3-1.02c1.36 0 2.4533 0.35333 3.28 1.06 0.8266 0.69333 1.2533 1.66 1.28 2.9h-2.26c0-0.33333-0.0934-0.65333-0.28-0.96-0.1867-0.32-0.4534-0.58-0.8-0.78-0.3467-0.21333-0.7734-0.32-1.28-0.32-0.6267-0.01333-1.1534 0.14-1.58 0.46-0.4267 0.30667-0.64 0.72667-0.64 1.26 0 0.6533 0.26 1.1667 0.78 1.54 0.52 0.36 1.3666 0.7333 2.54 1.12 0.7333 0.24 1.38 0.5333 1.94 0.88 0.5733 0.3333 1.02 0.7667 1.34 1.3 0.3333 0.52 0.5 1.1867 0.5 2 0 0.7467-0.1867 1.4267-0.5601 2.04-0.3733 0.6-0.9133 1.08-1.6199 1.44-0.6934 0.36-1.5334 0.54-2.52 0.54z" fill="#212121"/>
<path d="m22.54 19.7-0.0881 0.1795 0.0012 7e-4 0.0869-0.1802zm-1.74-1.54-0.17 0.1054 0.0015 0.0024 0.1685-0.1078zm-0.64-2.38v-0.2h-0.2029l0.0029 0.2029 0.2-0.0029zm2.24 0 0.2-0.0038-0.0037-0.1962h-0.1963v0.2zm0.72 1.82-0.1472 0.1355 0.0039 4e-3 0.1433-0.1395zm3.84 0.2 0.1267 0.1548 0.0027-0.0023-0.1294-0.1525zm0.26-2.66-0.1594 0.1211 0.0058 0.0069 0.1536-0.128zm-1.2-0.88-0.0877 0.1798 0.0036 0.0017 0.0841-0.1815zm-2.12-0.82 0.0615-0.1903-2e-4 -1e-4 -0.0613 0.1904zm-2.56-1.54-0.1547 0.1268 0.0013 0.0015 0.1534-0.1283zm6.96-5.08-0.13 0.15203 0.0015 0.00121 0.1285-0.15324zm1.28 2.9v0.2h0.2043l-0.0043-0.2043-0.2 0.0043zm-2.26 0h-0.2v0.2h0.2v-0.2zm-0.28-0.96-0.1728 0.10079 2e-3 0.0032 0.1708-0.10399zm-0.8-0.78-0.1049 0.1704 5e-3 0.00284 0.0999-0.17324zm-1.28-0.32-0.0043 0.2h0.0043v-0.2zm-1.58 0.46 0.1168 0.16244 0.0032-0.00244-0.12-0.16zm0.14 2.8-0.1167 0.1625 0.0029 0.0019 0.1138-0.1644zm2.54 1.12-0.0626 0.19 4e-4 1e-4 0.0622-0.1901zm1.94 0.88-0.1053 0.1701 0.0048 0.0028 0.1005-0.1729zm1.34 1.3-0.1716 0.1029 0.0032 5e-3 0.1684-0.1079zm-0.06 4.04 0.1698 0.1057 1e-3 -0.0017-0.1708-0.104zm-1.62 1.44-0.0908-0.1782-0.0014 7e-4 0.0922 0.1775zm-2.52 0.34c-0.9623 0-1.7982-0.1755-2.5131-0.5202l-0.1738 0.3604c0.7785 0.3753 1.6758 0.5598 2.6869 0.5598v-0.4zm-2.5119-0.5195c-0.7016-0.3445-1.2533-0.8335-1.6596-1.4683l-0.337 0.2156c0.4471 0.6985 1.0553 1.2362 1.8204 1.6117l0.1762-0.359zm-1.6581-1.4659c-0.3912-0.6309-0.5971-1.3874-0.61-2.2775l-0.4 0.0058c0.0138 0.9499 0.2345 1.78 0.67 2.4825l0.34-0.2108zm-0.81-2.0746h2.24v-0.4h-2.24v0.4zm2.04-0.1962c0.0143 0.7541 0.2722 1.408 0.7729 1.9517l0.2942-0.271c-0.4326-0.4697-0.6547-1.0291-0.6671-1.6883l-0.4 0.0076zm0.7767 1.9557c0.5262 0.5409 1.2497 0.8005 2.1433 0.8005v-0.4c-0.8131 0-1.4229-0.2337-1.8567-0.6795l-0.2866 0.279zm2.1433 0.8005c0.8153 0 1.4794-0.1865 1.9666-0.5852l-0.2532-0.3096c-0.3928 0.3213-0.9554 0.4948-1.7134 0.4948v0.4zm1.9694-0.5875c0.4856-0.4121 0.7306-0.9482 0.7306-1.5925h-0.4c0 0.5291-0.195 0.9529-0.5894 1.2875l0.2588 0.305zm0.7306-1.5925c0-0.5311-0.1444-0.9857-0.4464-1.348l-0.3072 0.256c0.2314 0.2777 0.3536 0.6364 0.3536 1.092h0.4zm-0.4408-1.341c-0.2798-0.3682-0.711-0.679-1.2751-0.9405l-0.1682 0.363c0.5292 0.2452 0.898 0.5211 1.1249 0.8195l0.3184-0.242zm-1.2715-0.9388c-0.5582-0.2722-1.2745-0.5489-2.1462-0.8305l-0.123 0.3806c0.8617 0.2784 1.5587 0.5484 2.0938 0.8095l0.1754-0.3596zm-2.1464-0.8306c-1.1388-0.3665-1.9538-0.8635-2.4679-1.4779l-0.3068 0.2566c0.5792 0.6923 1.4709 1.2219 2.6521 1.6021l0.1226-0.3808zm-2.4666-1.4764c-0.514-0.6268-0.7747-1.3939-0.7747-2.3132h-0.4c0 1.0007 0.286 1.8603 0.8653 2.5668l0.3094-0.2536zm-0.7747-2.3132c0-1.0516 0.3769-1.8879 1.1295-2.5276l-0.259-0.30478c-0.8474 0.72029-1.2705 1.6707-1.2705 2.8324h0.4zm1.1295-2.5276c0.7533-0.6403 1.802-0.97239 3.1705-0.97239v-0.4c-1.4315 0-2.5828 0.34791-3.4295 1.0676l0.259 0.30478zm3.1705-0.97239c1.3247 0 2.368 0.34348 3.15 1.012l0.26-0.30405c-0.8713-0.74479-2.0147-1.108-3.41-1.108v0.4zm3.1515 1.0132c0.7757 0.65057 1.1829 1.5591 1.2085 2.7511l0.4-0.0086c-0.0277-1.2881-0.4738-2.3128-1.3515-3.0489l-0.257 0.30648zm1.4085 2.5468h-2.26v0.4h2.26v-0.4zm-2.06 0.2c0-0.37284-0.1049-0.7285-0.3092-1.064l-0.3416 0.20798c0.1691 0.27784 0.2508 0.56218 0.2508 0.85601h0.4zm-0.3072-1.0608c-0.2057-0.35248-0.4985-0.63651-0.8729-0.85247l-0.1998 0.34648c0.319 0.18404 0.5594 0.42001 0.7271 0.70753l0.3456-0.20154zm-0.868-0.84956c-0.3851-0.23697-0.8501-0.34967-1.3848-0.34967v0.4c0.4787 0 0.8669 0.10063 1.1752 0.29033l0.2096-0.34066zm-1.3805-0.34963c-0.6633-0.01411-1.2358 0.1486-1.7043 0.49996l0.24 0.32c0.3849-0.28865 0.8656-0.4326 1.4557-0.42005l0.0086-0.39991zm-1.701 0.49756c-0.4799 0.3449-0.7233 0.82583-0.7233 1.4224h0.4c0-0.4701 0.1833-0.82917 0.5567-1.0976l-0.2334-0.3248zm-0.7233 1.4224c0 0.7162 0.2898 1.2907 0.8634 1.7025l0.2332-0.325c-0.4664-0.3348-0.6966-0.78701-0.6966-1.3775h-0.4zm0.8662 1.7044c0.5444 0.377 1.4135 0.7574 2.5912 1.1456l0.1252-0.38c-1.169-0.3852-1.9932-0.7514-2.4888-1.0944l-0.2276 0.3288zm2.5916 1.1457c0.7207 0.2359 1.3525 0.5229 1.8969 0.86l0.2106-0.3402c-0.5756-0.3563-1.2372-0.6559-1.9831-0.9l-0.1244 0.3802zm1.9017 0.8628c0.5461 0.3175 0.9675 0.7275 1.269 1.23l0.343-0.2058c-0.3385-0.5642-0.8105-1.0209-1.411-1.37l-0.201 0.3458zm1.2721 1.235c0.3071 0.4791 0.4684 1.1051 0.4684 1.8921h0.4c0-0.8397-0.172-1.547-0.5316-2.1079l-0.3368 0.2158zm0.4684 1.8921c0 0.7115-0.1774 1.3553-0.5308 1.936l0.3416 0.208c0.3932-0.646 0.5892-1.3622 0.5892-2.144h-0.4zm-0.5298 1.9343c-0.3518 0.5655-0.8627 1.022-1.541 1.3675l0.1816 0.3564c0.735-0.3745 1.3042-0.878 1.699-1.5125l-0.3396-0.2114zm-1.5424 1.3682c-0.6583 0.3418-1.465 0.5175-2.4278 0.5175v0.4c1.0105 0 1.8839-0.1843 2.6122-0.5625l-0.1844-0.355zm8.8444 0.4775h-0.2v0.2h0.2v-0.2zm0-14v-0.2h-0.2v0.2h0.2zm7.38 0.56-0.0948 0.17611 0.0026 0.00139 0.0922-0.1775zm1.54 1.5-0.1774 0.09239 0.1774-0.09239zm0 4.4-0.1774-0.0924 0.1774 0.0924zm-1.54 1.52 0.0922 0.1775 0.0026-0.0014-0.0948-0.1761zm-5.26 0.54v-0.2h-0.2v0.2h0.2zm0 5.48v0.2h0.2v-0.2h-0.2zm0-7.38h-0.2v0.2h0.2v-0.2zm4.5-0.64-0.1415-0.1414-0.0022 0.0022 0.1437 0.1392zm0-3.42-0.1459 0.137 0.0045 0.00442 0.1414-0.14142zm-4.5-0.66v-0.2h-0.2v0.2h0.2zm-1.92 12.1v-14h-0.4v14h0.4zm-0.2-13.8h4.74v-0.4h-4.74v0.4zm4.74 0c1.0448 0 1.8895 0.18303 2.5452 0.53609l0.1896-0.35219c-0.731-0.39359-1.6463-0.5839-2.7348-0.5839v0.4zm2.5478 0.5375c0.6601 0.3427 1.142 0.81438 1.4548 1.4149l0.3548-0.18478c-0.3539-0.6795-0.8986-1.2078-1.6252-1.5851l-0.1844 0.355zm1.4548 1.4149c0.3164 0.60756 0.4774 1.3084 0.4774 2.1076h0.4c0-0.85412-0.1724-1.62-0.5226-2.2924l-0.3548 0.18478zm0.4774 2.1076c0 0.7992-0.161 1.5-0.4774 2.1076l0.3548 0.1848c0.3502-0.6724 0.5226-1.4383 0.5226-2.2924h-0.4zm-0.4774 2.1076c-0.3131 0.6012-0.796 1.0802-1.4574 1.4363l0.1896 0.3522c0.7253-0.3905 1.269-0.9249 1.6226-1.6037l-0.3548-0.1848zm-1.4548 1.4349c-0.6564 0.3408-1.5021 0.5175-2.5478 0.5175v0.4c1.0876 0 2.0019-0.1833 2.7322-0.5625l-0.1844-0.355zm-2.5478 0.5175h-2.62v0.4h2.62v-0.4zm-2.82 0.2v5.48h0.4v-5.48h-0.4zm0.2 5.28h-2.12v0.4h2.12v-0.4zm0-6.98h2.52v-0.4h-2.52v0.4zm2.52 0c0.9327 0 1.6568-0.2189 2.1236-0.7008l-0.2873-0.2784c-0.3598 0.3714-0.9557 0.5792-1.8363 0.5792v0.4zm2.1214-0.6986c0.4713-0.4713 0.6986-1.0993 0.6986-1.8614h-0.4c0 0.6779-0.1994 1.1965-0.5814 1.5786l0.2828 0.2828zm0.6986-1.8614c0-0.74992-0.228-1.3708-0.6986-1.8414l-0.2828 0.28284c0.3827 0.38276 0.5814 0.89517 0.5814 1.5586h0.4zm-0.6942-1.8369c-0.4667-0.49671-1.1916-0.72306-2.1258-0.72306v0.4c0.8791 0 1.4742 0.21365 1.8342 0.59693l0.2916-0.27387zm-2.1258-0.72306h-2.52v0.4h2.52v-0.4zm-2.72 0.2v4.72h0.4v-4.72h-0.4zm15.712 11.46 0.1157-0.1631-0.1157 0.1631zm-1.9-2.5-0.1852 0.0755 0.1852-0.0755zm0-7.72-0.1852-0.07546 0.1852 0.07546zm1.9-2.5-0.1158-0.1631 0.1158 0.1631zm5.88 0-0.117 0.16221 0.0012 8.9e-4 0.1158-0.1631zm1.9 2.5 0.1852-0.07546-0.1852 0.07546zm0 7.72 0.1852 0.0755-0.1852-0.0755zm-1.9 2.5-0.1158-0.1631-0.0012 9e-4 0.117 0.1622zm-0.52-2.46 0.1649 0.1132 7e-4 -0.0011-0.1656-0.1121zm0-7.78-0.1657 0.11206 8e-4 0.00114 0.1649-0.1132zm-4.86 0-0.1657-0.11206-4e-4 5.5e-4 0.1661 0.11151zm0 7.78-0.1668 0.1104 0.0019 0.0028 0.1649-0.1132zm2.44 3.14c-1.097 0-2.0354-0.2832-2.8243-0.8431l-0.2315 0.3262c0.8645 0.6135 1.8861 0.9169 3.0558 0.9169v-0.4zm-2.8243-0.8431c-0.7912-0.5615-1.4026-1.3622-1.8305-2.4124l-0.3704 0.151c0.4521 1.1098 1.1073 1.9758 1.9694 2.5876l0.2315-0.3262zm-1.8305-2.4124c-0.4279-1.0503-0.6452-2.3101-0.6452-3.7845h-0.4c0 1.5123 0.2227 2.8258 0.6748 3.9355l0.3704-0.151zm-0.6452-3.7845c0-1.4744 0.2173-2.7342 0.6452-3.7845l-0.3704-0.15092c-0.4521 1.1097-0.6748 2.4232-0.6748 3.9355h0.4zm0.6452-3.7845c0.4279-1.0502 1.0393-1.8509 1.8305-2.4124l-0.2315-0.3262c-0.8621 0.61184-1.5173 1.4778-1.9694 2.5876l0.3704 0.15092zm1.8305-2.4124c0.7889-0.55986 1.7273-0.8431 2.8243-0.8431v-0.4c-1.1697 0-2.1913 0.30343-3.0558 0.9169l0.2315 0.3262zm2.8243-0.8431c1.1109 0 2.0485 0.28353 2.823 0.84221l0.234-0.32442c-0.8522-0.61466-1.8746-0.91779-3.057-0.91779v0.4zm2.8242 0.8431c0.7912 0.56149 1.4027 1.3622 1.8306 2.4124l0.3704-0.15092c-0.4521-1.1098-1.1073-1.9758-1.9695-2.5876l-0.2315 0.3262zm1.8306 2.4124c0.4279 1.0503 0.6452 2.3101 0.6452 3.7845h0.4c0-1.5123-0.2227-2.8258-0.6748-3.9355l-0.3704 0.15092zm0.6452 3.7845c0 1.4744-0.2173 2.7342-0.6452 3.7845l0.3704 0.151c0.4521-1.1097 0.6748-2.4232 0.6748-3.9355h-0.4zm-0.6452 3.7845c-0.4279 1.0502-1.0394 1.8509-1.8306 2.4124l0.2315 0.3262c0.8622-0.6118 1.5174-1.4778 1.9695-2.5876l-0.3704-0.151zm-1.8318 2.4133c-0.7745 0.5587-1.7121 0.8422-2.823 0.8422v0.4c1.1824 0 2.2048-0.3031 3.057-0.9178l-0.234-0.3244zm-2.823-0.7578c1.0721 0 1.9379-0.4845 2.5849-1.4268l-0.3298-0.2264c-0.5797 0.8444-1.3273 1.2532-2.2551 1.2532v0.4zm2.5856-1.4279c0.6449-0.9533 0.9544-2.2991 0.9544-4.0121h-0.4c0 1.6737-0.3039 2.9279-0.8857 3.7879l0.3313 0.2242zm0.9544-4.0121c0-1.7127-0.3094-3.0526-0.9551-3.9932l-0.3298 0.2264c0.5809 0.8461 0.8849 2.0928 0.8849 3.7668h0.4zm-0.9544-3.9921c-0.6464-0.95553-1.5122-1.4479-2.5856-1.4479v0.4c0.9265 0 1.674 0.41426 2.2543 1.2721l0.3313-0.22412zm-2.5856-1.4479c-1.0858 0-1.9587 0.4915-2.6057 1.4479l0.3313 0.22412c0.5797-0.85689 1.3335-1.2721 2.2744-1.2721v-0.4zm-2.6061 1.4485c-0.6315 0.94023-0.9339 2.2794-0.9339 3.9915h0.4c0-1.6746 0.2975-2.9221 0.866-3.7685l-0.3321-0.22302zm-0.9339 3.9915c0 1.7124 0.3026 3.0574 0.9332 4.0104l0.3336-0.2208c-0.5694-0.8604-0.8668-2.1153-0.8668-3.7896h-0.4zm0.9351 4.0132c0.6476 0.9432 1.5204 1.4268 2.6049 1.4268v-0.4c-0.9422 0-1.6961-0.4097-2.2751-1.2532l-0.3298 0.2264zm17.537 2.9868h-0.2v0.2h0.2v-0.2zm0-12.1h0.2v-0.2h-0.2v0.2zm-3.76 0h-0.2v0.2h0.2v-0.2zm0-1.9v-0.2h-0.2v0.2h0.2zm9.64 0h0.2v-0.2h-0.2v0.2zm0 1.9v0.2h0.2v-0.2h-0.2zm-3.76 0v-0.2h-0.2v0.2h0.2zm0 12.1v0.2h0.2v-0.2h-0.2zm-1.92 0v-12.1h-0.4v12.1h0.4zm-0.2-12.3h-3.76v0.4h3.76v-0.4zm-3.56 0.2v-1.9h-0.4v1.9h0.4zm-0.2-1.7h9.64v-0.4h-9.64v0.4zm9.44-0.2v1.9h0.4v-1.9h-0.4zm0.2 1.7h-3.76v0.4h3.76v-0.4zm-3.96 0.2v12.1h0.4v-12.1h-0.4zm0.2 11.9h-2.12v0.4h2.12v-0.4zm12.472-0.1-0.0882 0.1795 0.0013 7e-4 0.0869-0.1802zm-1.74-1.54-0.17 0.1054 0.0015 0.0024 0.1685-0.1078zm-0.64-2.38v-0.2h-0.203l3e-3 0.2029 0.2-0.0029zm2.24 0 0.1999-0.0038-0.0037-0.1962h-0.1962v0.2zm0.72 1.82-0.1472 0.1355 0.0038 4e-3 0.1434-0.1395zm3.8399 0.2 0.1267 0.1548 0.0027-0.0023-0.1294-0.1525zm0.2601-2.66-0.1594 0.1211 0.0057 0.0069 0.1537-0.128zm-1.2001-0.88-0.0877 0.1798 0.0037 0.0017 0.084-0.1815zm-2.1199-0.82 0.0614-0.1903-2e-4 -1e-4 -0.0612 0.1904zm-2.5601-1.54-0.1546 0.1268 0.0013 0.0015 0.1533-0.1283zm6.9601-5.08-0.13 0.15203 0.0014 0.00121 0.1286-0.15324zm1.28 2.9v0.2h0.2043l-0.0044-0.2043-0.1999 0.0043zm-2.2601 0h-0.1999v0.2h0.1999v-0.2zm-0.2799-0.96-0.1728 0.10079 0.0019 0.0032 0.1709-0.10399zm-0.8001-0.78-0.1048 0.1704 0.0049 0.00284 0.0999-0.17324zm-1.28-0.32-0.0042 0.2h0.0042v-0.2zm-1.58 0.46 0.1168 0.16244 0.0033-0.00244-0.1201-0.16zm0.14 2.8-0.1166 0.1625 0.0028 0.0019 0.1138-0.1644zm2.54 1.12-0.0625 0.19 3e-4 1e-4 0.0622-0.1901zm1.9401 0.88-0.1054 0.1701 0.0048 0.0028 0.1006-0.1729zm1.34 1.3-0.1716 0.1029 0.0032 5e-3 0.1684-0.1079zm-0.0601 4.04 0.1699 0.1057 1e-3 -0.0017-0.1709-0.104zm-1.6199 1.44-0.0908-0.1782-0.0014 7e-4 0.0922 0.1775zm-2.5201 0.34c-0.9622 0-1.7982-0.1755-2.5131-0.5202l-0.1737 0.3604c0.7784 0.3753 1.6758 0.5598 2.6868 0.5598v-0.4zm-2.5118-0.5195c-0.7016-0.3445-1.2534-0.8335-1.6597-1.4683l-0.3369 0.2156c0.447 0.6985 1.0553 1.2362 1.8203 1.6117l0.1763-0.359zm-1.6582-1.4659c-0.3911-0.6309-0.5971-1.3874-0.61-2.2775l-0.3999 0.0058c0.0137 0.9499 0.2344 1.78 0.67 2.4825l0.3399-0.2108zm-0.8099-2.0746h2.24v-0.4h-2.24v0.4zm2.04-0.1962c0.0142 0.7541 0.2721 1.408 0.7728 1.9517l0.2943-0.271c-0.4326-0.4697-0.6547-1.0291-0.6672-1.6883l-0.3999 0.0076zm0.7766 1.9557c0.5263 0.5409 1.2498 0.8005 2.1434 0.8005v-0.4c-0.8132 0-1.423-0.2337-1.8567-0.6795l-0.2867 0.279zm2.1434 0.8005c0.8152 0 1.4793-0.1865 1.9666-0.5852l-0.2533-0.3096c-0.3927 0.3213-0.9553 0.4948-1.7133 0.4948v0.4zm1.9693-0.5875c0.4857-0.4121 0.7306-0.9482 0.7306-1.5925h-0.4c0 0.5291-0.195 0.9529-0.5893 1.2875l0.2587 0.305zm0.7306-1.5925c0-0.5311-0.1444-0.9857-0.4463-1.348l-0.3073 0.256c0.2314 0.2777 0.3536 0.6364 0.3536 1.092h0.4zm-0.4407-1.341c-0.2799-0.3682-0.711-0.679-1.2752-0.9405l-0.1681 0.363c0.5292 0.2452 0.898 0.5211 1.1248 0.8195l0.3185-0.242zm-1.2716-0.9388c-0.5582-0.2722-1.2745-0.5489-2.1462-0.8305l-0.1229 0.3806c0.8616 0.2784 1.5586 0.5484 2.0938 0.8095l0.1753-0.3596zm-2.1464-0.8306c-1.1387-0.3665-1.9537-0.8635-2.4679-1.4779l-0.3067 0.2566c0.5792 0.6923 1.4708 1.2219 2.6521 1.6021l0.1225-0.3808zm-2.4666-1.4764c-0.514-0.6268-0.7746-1.3939-0.7746-2.3132h-0.4001c0 1.0007 0.2861 1.8603 0.8654 2.5668l0.3093-0.2536zm-0.7746-2.3132c0-1.0516 0.3769-1.8879 1.1295-2.5276l-0.2591-0.30478c-0.8474 0.72029-1.2705 1.6707-1.2705 2.8324h0.4001zm1.1295-2.5276c0.7533-0.6403 1.8019-0.97239 3.1705-0.97239v-0.4c-1.4315 0-2.5829 0.34791-3.4296 1.0676l0.2591 0.30478zm3.1705-0.97239c1.3246 0 2.3679 0.34348 3.15 1.012l0.2599-0.30405c-0.8713-0.74479-2.0146-1.108-3.4099-1.108v0.4zm3.1514 1.0132c0.7757 0.65057 1.183 1.5591 1.2086 2.7511l0.3999-0.0086c-0.0277-1.2881-0.4738-2.3128-1.3514-3.0489l-0.2571 0.30648zm1.4086 2.5468h-2.2601v0.4h2.2601v-0.4zm-2.0601 0.2c0-0.37284-0.1049-0.7285-0.3091-1.064l-0.3417 0.20798c0.1691 0.27784 0.2509 0.56218 0.2509 0.85601h0.3999zm-0.3072-1.0608c-0.2056-0.35248-0.4985-0.63651-0.8728-0.85247l-0.1999 0.34648c0.319 0.18404 0.5595 0.42001 0.7272 0.70753l0.3455-0.20154zm-0.8679-0.84956c-0.3851-0.23697-0.8502-0.34967-1.3849-0.34967v0.4c0.4787 0 0.867 0.10063 1.1752 0.29033l0.2097-0.34066zm-1.3806-0.34963c-0.6632-0.01411-1.2358 0.1486-1.7042 0.49996l0.24 0.32c0.3848-0.28865 0.8656-0.4326 1.4557-0.42005l0.0085-0.39991zm-1.701 0.49756c-0.4798 0.3449-0.7232 0.82583-0.7232 1.4224h0.4c0-0.4701 0.1832-0.82917 0.5567-1.0976l-0.2335-0.3248zm-0.7232 1.4224c0 0.7162 0.2897 1.2907 0.8633 1.7025l0.2333-0.325c-0.4664-0.3348-0.6966-0.78701-0.6966-1.3775h-0.4zm0.8661 1.7044c0.5444 0.377 1.4136 0.7574 2.5913 1.1456l0.1251-0.38c-1.1689-0.3852-1.9931-0.7514-2.4887-1.0944l-0.2277 0.3288zm2.5916 1.1457c0.7208 0.2359 1.3526 0.5229 1.897 0.86l0.2105-0.3402c-0.5756-0.3563-1.2371-0.6559-1.983-0.9l-0.1245 0.3802zm1.9017 0.8628c0.5462 0.3175 0.9676 0.7275 1.2691 1.23l0.3429-0.2058c-0.3385-0.5642-0.8104-1.0209-1.4109-1.37l-0.2011 0.3458zm1.2722 1.235c0.3071 0.4791 0.4683 1.1051 0.4683 1.8921h0.4001c0-0.8397-0.1721-1.547-0.5317-2.1079l-0.3367 0.2158zm0.4683 1.8921c0 0.7115-0.1773 1.3553-0.5308 1.936l0.3417 0.208c0.3932-0.646 0.5892-1.3622 0.5892-2.144h-0.4001zm-0.5298 1.9343c-0.3518 0.5655-0.8627 1.022-1.5409 1.3675l0.1815 0.3564c0.7351-0.3745 1.3042-0.878 1.6991-1.5125l-0.3397-0.2114zm-1.5423 1.3682c-0.6584 0.3418-1.465 0.5175-2.4279 0.5175v0.4c1.0106 0 1.8839-0.1843 2.6122-0.5625l-0.1843-0.355z" fill="#212121" mask="url(#a)"/>
<path d="m6 4v8" stroke="#212121" stroke-width="2.5"/>
<path d="m1 9 5 4 5-4" stroke="#212121" stroke-linejoin="bevel" stroke-width="2.5"/>
<circle cx="6" cy="18" r="2" fill="#212121"/>
</svg>
